<?xml version="1.0" encoding="UTF-8"?>
<svg id="Layer_2" data-name="Layer 2" xmlns="http://www.w3.org/2000/svg" viewBox="0 0 68.03 58.92">
  <defs>
    <style>
      .cls-1 {
        fill: #fff;
      }
    </style>
  </defs>
  <g id="Layer_1-2" data-name="Layer 1">
    <g id="LINE">
      <polygon class="cls-1" points="10.31 23.51 0 29.46 10.31 35.41 22.22 35.41 32.53 29.46 22.22 23.51 10.31 23.51"/>
    </g>
    <g id="LINE-2" data-name="LINE">
      <polygon class="cls-1" points="22.96 36.7 17.01 47.01 17.01 58.92 27.32 52.96 33.27 42.65 33.27 30.75 22.96 36.7"/>
    </g>
    <g id="LINE-3" data-name="LINE">
      <polygon class="cls-1" points="34.76 42.65 40.71 52.96 51.02 58.92 51.02 47.01 45.07 36.7 34.76 30.75 34.76 42.65"/>
    </g>
    <g id="LINE-4" data-name="LINE">
      <polygon class="cls-1" points="45.81 35.41 57.72 35.41 68.03 29.46 57.72 23.51 45.81 23.51 35.5 29.46 45.81 35.41"/>
    </g>
    <g id="LINE-5" data-name="LINE">
      <polygon class="cls-1" points="45.07 22.22 51.02 11.91 51.02 0 40.71 5.95 34.76 16.26 34.76 28.17 45.07 22.22"/>
    </g>
    <g id="LINE-6" data-name="LINE">
      <polygon class="cls-1" points="33.27 16.26 27.32 5.95 17.01 0 17.01 11.91 22.96 22.22 33.27 28.17 33.27 16.26"/>
    </g>
    <g id="LWPOLYLINE">
      <path class="cls-1" d="M16.46,12.45c-2.8,2.89-4.85,6.44-5.95,10.31h1.55c1.02-3.34,2.79-6.41,5.18-8.97l-.78-1.34Z"/>
    </g>
    <g id="LWPOLYLINE-2" data-name="LWPOLYLINE">
      <path class="cls-1" d="M10.51,36.16c1.1,3.88,3.15,7.42,5.95,10.31l.78-1.34c-2.39-2.56-4.16-5.62-5.18-8.97h-1.55Z"/>
    </g>
    <g id="LWPOLYLINE-3" data-name="LWPOLYLINE">
      <path class="cls-1" d="M28.06,53.16c3.91,.98,8,.98,11.91,0l-.78-1.34c-3.41,.79-6.95,.79-10.35,0l-.78,1.34Z"/>
    </g>
    <g id="LWPOLYLINE-4" data-name="LWPOLYLINE">
      <path class="cls-1" d="M51.57,46.47c2.8-2.89,4.85-6.44,5.95-10.31h-1.55c-1.02,3.34-2.79,6.41-5.18,8.97l.78,1.34Z"/>
    </g>
    <g id="LWPOLYLINE-5" data-name="LWPOLYLINE">
      <path class="cls-1" d="M57.52,22.76c-1.1-3.88-3.15-7.42-5.95-10.31l-.78,1.34c2.39,2.56,4.16,5.62,5.18,8.97h1.55Z"/>
    </g>
    <g id="LWPOLYLINE-6" data-name="LWPOLYLINE">
      <path class="cls-1" d="M39.97,5.75c-3.91-.98-8-.98-11.91,0l.78,1.34c3.41-.79,6.95-.79,10.35,0l.78-1.34Z"/>
    </g>
  </g>
</svg>